<svg id="Layer_3" enable-background="#ffffff" height="512" viewBox="0 0 64 64" width="512" xmlns="http://www.w3.org/2000/svg"><g><path d="m42 62h-20c-3.314 0-6-2.686-6-6v-48c0-3.314 2.686-6 6-6h20c3.314 0 6 2.686 6 6v48c0 3.314-2.686 6-6 6z" fill="#FFFFFF"/><path d="m16 8h32v42h-32z" fill="#ffffff"/><path d="m39 24h20c1.657 0 3 1.343 3 3v16c0 1.657-1.343 3-3 3h-20c-1.657 0-3-1.343-3-3v-4l-5-5h5v-7c0-1.657 1.343-3 3-3z" fill="#ffffff"/><path d="m59 24.5c0-.168-.011-.333-.015-.5h-19.985c-1.657 0-3 1.343-3 3v7h-5l5 5v4c0 .716.261 1.365.681 1.881 12.546-1.097 22.319-9.802 22.319-20.381z" fill="#ffffff"/><path d="m43 46v-6c0-1.105.895-2 2-2h8c1.105 0 2 .895 2 2v6z" fill="#ffffff"/><path d="m49 28c1.657 0 3 1.343 3 3v2c0 1.657-1.343 3-3 3-1.657 0-3-1.343-3-3v-2c0-1.657 1.343-3 3-3z" fill="#ffffff"/><path d="m25 34h-20c-1.657 0-3-1.343-3-3v-16c0-1.657 1.343-3 3-3h20c1.657 0 3 1.343 3 3v7l5 5h-5v4c0 1.657-1.343 3-3 3z" fill="#ffffff"/><path d="m24.944 12h-19.944c-1.657 0-3 1.343-3 3v15.776c.981.133 1.978.224 3 .224 11.046 0 20-8.059 20-18 0-.338-.036-.667-.056-1z" fill="#ffffff"/><circle cx="32" cy="56" fill="#ffffff" r="2"/><path d="m9 34v-6c0-1.105.895-2 2-2h8c1.105 0 2 .895 2 2v6z" fill="#ffffff"/><path d="m15 16c1.657 0 3 1.343 3 3v2c0 1.657-1.343 3-3 3-1.657 0-3-1.343-3-3v-2c0-1.657 1.343-3 3-3z" fill="#fadfb2"/><g><path d="m32 52.905c-1.654 0-3 1.346-3 3s1.346 3 3 3 3-1.346 3-3-1.346-3-3-3zm0 4c-.552 0-1-.449-1-1s.448-1 1-1 1 .449 1 1-.448 1-1 1z"/><path d="m19 20.905v-2c0-2.206-1.794-4-4-4s-4 1.794-4 4v2c0 2.206 1.794 4 4 4s4-1.794 4-4zm-2 0c0 1.103-.897 2-2 2s-2-.897-2-2v-2c0-1.103.897-2 2-2s2 .897 2 2z"/><path d="m59 22.905h-10v-15c0-3.86-3.141-7-7-7h-20c-3.859 0-7 3.14-7 7v3h-10c-2.206 0-4 1.794-4 4v16c0 2.206 1.794 4 4 4h10v21c0 3.86 3.141 7 7 7h20c3.859 0 7-3.14 7-7v-9h10c2.206 0 4-1.794 4-4v-16c0-2.205-1.794-4-4-4zm-37-20h20c2.414 0 4.434 1.721 4.899 4h-29.798c.465-2.279 2.485-4 4.899-4zm-19 28v-16c0-1.103.897-2 2-2h20c1.103 0 2 .897 2 2v7c0 .265.105.52.293.707l3.293 3.293h-2.586c-.553 0-1 .448-1 1v4c0 1.103-.897 2-2 2h-3v-5c0-1.654-1.346-3-3-3h-4-4c-1.654 0-3 1.346-3 3v5h-3c-1.103 0-2-.897-2-2zm14-2v4h-4v-4h-2v4h-1v-5c0-.551.448-1 1-1h8c.552 0 1 .449 1 1v5h-1v-4zm25 32h-20c-2.757 0-5-2.243-5-5v-5h30v5c0 2.757-2.243 5-5 5zm5-12h-30v-14h8c2.206 0 4-1.794 4-4v-3h4c.404 0 .77-.244.924-.617.155-.374.069-.804-.217-1.09l-4.707-4.707v-6.586c0-2.206-1.794-4-4-4h-8v-2h30v14h-8c-2.206 0-4 1.794-4 4v6h-4c-.404 0-.77.244-.924.617-.155.374-.069.804.217 1.09l4.707 4.707v3.586c0 2.206 1.794 4 4 4h8zm7-4h-1v-4h-2v4h-4v-4h-2v4h-1v-5c0-.551.448-1 1-1h8c.552 0 1 .449 1 1zm7-2c0 1.103-.897 2-2 2h-3v-5c0-1.654-1.346-3-3-3h-4-4c-1.654 0-3 1.346-3 3v5h-3c-1.103 0-2-.897-2-2v-4c0-.265-.105-.52-.293-.707l-3.293-3.293h2.586c.553 0 1-.448 1-1v-7c0-1.103.897-2 2-2h20c1.103 0 2 .897 2 2z"/><path d="m53 32.905v-2c0-2.206-1.794-4-4-4s-4 1.794-4 4v2c0 2.206 1.794 4 4 4s4-1.794 4-4zm-2 0c0 1.103-.897 2-2 2s-2-.897-2-2v-2c0-1.103.897-2 2-2s2 .897 2 2z"/><path d="m31 43.905h2v2h-2z"/><path d="m27 43.905h2v2h-2z"/><path d="m23 43.905h2v2h-2z"/><path d="m39 10.905h2v2h-2z"/><path d="m35 10.905h2v2h-2z"/><path d="m31 10.905h2v2h-2z"/></g></g></svg>