<svg xmlns="http://www.w3.org/2000/svg" xmlns:xlink="http://www.w3.org/1999/xlink" width="164" height="49" viewBox="0 0 164 49">
    <defs>
        <path id="a" d="M0 72.235h188V0H0z"/>
        <linearGradient id="c" x1="61.196%" x2="26.166%" y1="95.035%" y2="28.096%">
            <stop offset="0%" stop-color="#00A0FF"/>
            <stop offset=".657%" stop-color="#00A1FF"/>
            <stop offset="26.01%" stop-color="#00BEFF"/>
            <stop offset="51.22%" stop-color="#00D2FF"/>
            <stop offset="76.04%" stop-color="#00DFFF"/>
            <stop offset="100%" stop-color="#00E3FF"/>
        </linearGradient>
        <linearGradient id="d" x1="107.592%" x2="-130.479%" y1="50.001%" y2="50.001%">
            <stop offset="0%" stop-color="#FFE000"/>
            <stop offset="40.87%" stop-color="#FFBD00"/>
            <stop offset="77.54%" stop-color="#FFA500"/>
            <stop offset="100%" stop-color="#FF9C00"/>
        </linearGradient>
        <linearGradient id="e" x1="86.246%" x2="-50.137%" y1="68.816%" y2="-34.74%">
            <stop offset="0%" stop-color="#FF3A44"/>
            <stop offset="100%" stop-color="#C31162"/>
        </linearGradient>
        <linearGradient id="f" x1="-18.803%" x2="42.098%" y1="110.951%" y2="64.706%">
            <stop offset="0%" stop-color="#32A071"/>
            <stop offset="6.85%" stop-color="#2DA771"/>
            <stop offset="47.62%" stop-color="#15CF74"/>
            <stop offset="80.09%" stop-color="#06E775"/>
            <stop offset="100%" stop-color="#00F076"/>
        </linearGradient>
        <path id="g" d="M0 72.235h188V0H0z"/>
        <path id="i" d="M.528 10.676h20.24V.167H.527z"/>
        <path id="k" d="M1.18 2.512h.651V.645H1.18z"/>
        <path id="m" d="M.035 6.018h7.319V.933H.034z"/>
        <path id="o" d="M1.18 16.686h28.006V1.203H1.18z"/>
    </defs>
    <g fill="none" fill-rule="evenodd">
        <g transform="matrix(1 0 0 -1 -12 60.263)">
            <mask id="b" fill="#fff">
                <use xlink:href="#a"/>
            </mask>
            <g mask="url(#b)">
                <path fill="#000" fill-rule="nonzero" d="M169.807 12.04H18.194c-3.336 0-6.065 2.708-6.065 6.019v36.117c0 3.311 2.73 6.02 6.065 6.02h151.613c3.335 0 6.064-2.709 6.064-6.02V18.06c0-3.31-2.729-6.02-6.064-6.02"/>
                <path fill="#A6A6A6" fill-rule="nonzero" d="M169.807 60.196H18.194c-3.336 0-6.065-2.71-6.065-6.02V18.06c0-3.311 2.73-6.02 6.065-6.02h151.613c3.335 0 6.064 2.709 6.064 6.02v36.117c0 3.31-2.729 6.02-6.064 6.02m0-.963c2.809 0 5.094-2.269 5.094-5.057V18.06c0-2.789-2.285-5.057-5.094-5.057H18.194c-2.81 0-5.095 2.268-5.095 5.057v36.117c0 2.788 2.286 5.057 5.095 5.057h151.613"/>
                <path fill="#FFF" fill-rule="nonzero" d="M141.832 24.078h2.263v15.05h-2.263v-15.05zm20.385 9.63l-2.594-6.526h-.078l-2.692 6.525h-2.438l4.037-9.12-2.3-5.073h2.359l6.223 14.193h-2.517zm-12.835-7.92c-.742 0-1.775.367-1.775 1.278 0 1.161 1.287 1.606 2.399 1.606.994 0 1.464-.213 2.068-.503a2.736 2.736 0 0 0-2.692-2.381zm.273 8.248c-1.638 0-3.336-.716-4.037-2.304l2.008-.832c.43.832 1.229 1.104 2.068 1.104 1.17 0 2.36-.697 2.38-1.937v-.155c-.41.233-1.287.58-2.36.58-2.166 0-4.37-1.18-4.37-3.387 0-2.014 1.775-3.312 3.764-3.312 1.522 0 2.362.678 2.888 1.472h.078v-1.161h2.184v5.77c0 2.671-2.008 4.162-4.603 4.162zm-13.987-2.161h-3.219v5.159h3.22c1.691 0 2.652-1.39 2.652-2.58 0-1.166-.96-2.58-2.653-2.58zm-.058 7.253h-5.423v-15.05h2.262v5.702h3.16c2.51 0 4.975 1.804 4.975 4.675 0 2.871-2.466 4.673-4.974 4.673zm-29.572-13.343c-1.563 0-2.872 1.3-2.872 3.084 0 1.803 1.309 3.123 2.872 3.123 1.544 0 2.755-1.32 2.755-3.123 0-1.785-1.21-3.084-2.755-3.084zm2.6 7.08h-.08c-.508.6-1.484 1.143-2.715 1.143-2.58 0-4.944-2.249-4.944-5.14 0-2.87 2.364-5.1 4.944-5.1 1.23 0 2.207.543 2.715 1.164h.08v-.738c0-1.959-1.056-3.006-2.756-3.006-1.388 0-2.248.99-2.6 1.824l-1.973-.815c.566-1.358 2.072-3.026 4.573-3.026 2.657 0 4.905 1.552 4.905 5.333V33.7h-2.15v-.835zm3.712-8.787h2.267V39.13h-2.267V24.078zm5.607 4.965c-.058 1.978 1.544 2.987 2.697 2.987.9 0 1.661-.445 1.915-1.086l-4.612-1.9zm7.035 1.707c-.43 1.144-1.74 3.258-4.416 3.258-2.658 0-4.865-2.074-4.865-5.12 0-2.87 2.188-5.12 5.118-5.12 2.366 0 3.734 1.435 4.3 2.27L123.37 27.2c-.585-.853-1.387-1.416-2.54-1.416s-1.974.524-2.502 1.551l6.898 2.833-.234.581zm-54.954 1.687v-2.172h5.236c-.156-1.222-.566-2.114-1.191-2.734-.763-.757-1.955-1.591-4.045-1.591-3.225 0-5.746 2.58-5.746 5.78s2.52 5.78 5.746 5.78c1.74 0 3.01-.68 3.947-1.552l1.544 1.532c-1.31 1.242-3.048 2.193-5.491 2.193-4.416 0-8.129-3.57-8.129-7.953 0-4.384 3.713-7.952 8.129-7.952 2.383 0 4.18.776 5.588 2.23 1.447 1.436 1.895 3.452 1.895 5.082 0 .505-.038.97-.117 1.357h-7.366zm13.438-6.652c-1.564 0-2.913 1.28-2.913 3.103 0 1.843 1.35 3.104 2.913 3.104 1.562 0 2.91-1.26 2.91-3.104 0-1.823-1.348-3.103-2.91-3.103zm0 8.223c-2.854 0-5.18-2.152-5.18-5.12 0-2.948 2.326-5.12 5.18-5.12 2.852 0 5.178 2.172 5.178 5.12 0 2.968-2.326 5.12-5.178 5.12zm11.295-8.223c-1.563 0-2.912 1.28-2.912 3.103 0 1.843 1.349 3.104 2.912 3.104 1.564 0 2.911-1.26 2.911-3.104 0-1.823-1.347-3.103-2.91-3.103zm0 8.223c-2.852 0-5.177-2.152-5.177-5.12 0-2.948 2.325-5.12 5.177-5.12 2.853 0 5.178 2.172 5.178 5.12 0 2.968-2.325 5.12-5.178 5.12z"/>
            </g>
        </g>
        <path fill="url(#c)" fill-rule="nonzero" d="M1.74 30.654c-.351-.37-.56-.946-.56-1.691V2.337c0-.747.209-1.32.56-1.692L1.83.56l15.028 14.915v.353L1.83 30.742l-.09-.088z" transform="matrix(1 0 0 -1 11.045 39.796)"/>
        <path fill="url(#d)" fill-rule="nonzero" d="M1.09 6.195v-.352L6.098.868l.114.064 5.935 3.347c1.695.957 1.695 2.522 0 3.477l-5.935 3.348-.112.064-5.01-4.973z" transform="matrix(1 0 0 -1 26.813 30.165)"/>
        <path fill="url(#e)" fill-rule="nonzero" d="M.528.645C1.087.06 2.01-.015 3.049.571l17.718 9.993-5.122 5.086L.528.645z" transform="matrix(1 0 0 -1 12.258 39.796)"/>
        <path fill="url(#f)" fill-rule="nonzero" d="M.528 16.207L15.645 1.203l5.122 5.085L3.05 16.281c-.487.275-.95.405-1.36.405a1.56 1.56 0 0 1-1.161-.479" transform="matrix(1 0 0 -1 12.258 25.35)"/>
        <g transform="matrix(1 0 0 -1 -12 60.263)">
            <mask id="h" fill="#fff">
                <use xlink:href="#g"/>
            </mask>
            <g mask="url(#h)">
                <g transform="translate(24.258 20.467)">
                    <mask id="j" fill="#fff">
                        <use xlink:href="#i"/>
                    </mask>
                    <g mask="url(#j)" opacity=".2">
                        <path fill="#000" fill-rule="nonzero" d="M20.654 10.676L3.05.748C2.064.192 1.184.228.619.735l-.09-.09.09-.087c.565-.505 1.445-.542 2.43.014l17.718 9.992-.113.112z"/>
                    </g>
                </g>
                <g transform="translate(23.045 20.467)">
                    <mask id="l" fill="#fff">
                        <use xlink:href="#k"/>
                    </mask>
                    <g mask="url(#l)" opacity=".12">
                        <path fill="#000" fill-rule="nonzero" d="M1.741.82c-.353.372-.562.947-.562 1.692v-.176c0-.745.209-1.32.562-1.691l.091.089-.091.087z"/>
                    </g>
                </g>
                <g transform="translate(44.877 30.098)">
                    <mask id="n" fill="#fff">
                        <use xlink:href="#m"/>
                    </mask>
                    <g fill="#000" fill-rule="nonzero" mask="url(#n)" opacity=".12">
                        <path d="M6.082 4.456L.035 1.046.148.932 6.082 4.28c.848.478 1.271 1.108 1.271 1.738-.071-.57-.502-1.129-1.27-1.562"/>
                    </g>
                </g>
                <g transform="translate(23.045 34.914)">
                    <mask id="p" fill="#fff">
                        <use xlink:href="#o"/>
                    </mask>
                    <g fill="#FFF" fill-rule="nonzero" mask="url(#p)" opacity=".25">
                        <path d="M4.262 16.105l23.652-13.34c.77-.433 1.201-.992 1.271-1.563.002.63-.423 1.261-1.27 1.739L4.261 16.28c-1.696.955-3.082.162-3.082-1.766v-.175c0 1.926 1.386 2.72 3.082 1.765"/>
                    </g>
                </g>
                <path fill="#FFF" fill-rule="nonzero" d="M63.202 45.433h1.291c.84 0 1.506.238 1.998.716.49.478.736 1.147.736 2.008 0 .854-.245 1.52-.736 2.002-.492.48-1.157.721-1.998.721h-1.29v-5.447zm-.933-.888v7.224h2.224c1.118 0 2.013-.335 2.684-1.004.67-.67 1.006-1.539 1.006-2.608 0-1.07-.335-1.94-1.006-2.608-.67-.67-1.566-1.004-2.684-1.004h-2.224z"/>
                <path stroke="#FFF" stroke-width=".5" d="M63.202 45.433h1.291c.84 0 1.506.238 1.998.716.49.478.736 1.147.736 2.008 0 .854-.245 1.52-.736 2.002-.492.48-1.157.721-1.998.721h-1.29v-5.447zm-.933-.888v7.224h2.224c1.118 0 2.013-.335 2.684-1.004.67-.67 1.006-1.539 1.006-2.608 0-1.07-.335-1.94-1.006-2.608-.67-.67-1.566-1.004-2.684-1.004h-2.224z"/>
                <path fill="#FFF" fill-rule="nonzero" stroke="#FFF" stroke-width=".5" d="M69.496 51.768h.935v-7.223h-.935z"/>
                <path fill="#FFF" fill-rule="nonzero" d="M74.15 44.384c-.53 0-1.045.17-1.55.514-.505.343-.836.823-.992 1.443l.854.342c.102-.396.31-.73.625-1.003.316-.272.67-.409 1.062-.409.407 0 .755.106 1.042.318.289.212.432.5.432.863 0 .403-.143.714-.432.933-.287.218-.743.422-1.367.61-.644.202-1.131.463-1.464.782-.33.32-.498.728-.498 1.227 0 .517.207.968.62 1.35.414.383.953.576 1.616.576.618 0 1.119-.153 1.504-.459.387-.307.638-.64.752-1.004l-.852-.353c-.062.228-.212.441-.453.636-.24.194-.55.291-.93.291-.359 0-.666-.098-.92-.297-.254-.199-.381-.445-.381-.74 0-.27.117-.498.35-.682.235-.185.579-.351 1.032-.5.36-.114.659-.225.9-.333.24-.107.485-.25.732-.428.247-.179.433-.4.559-.666.125-.266.188-.573.188-.924 0-.349-.073-.662-.218-.937a1.77 1.77 0 0 0-.58-.657 2.927 2.927 0 0 0-1.631-.494"/>
                <path stroke="#FFF" stroke-width=".5" d="M74.15 44.384c-.53 0-1.045.17-1.55.514-.505.343-.836.823-.992 1.443l.854.342c.102-.396.31-.73.625-1.003.316-.272.67-.409 1.062-.409.407 0 .755.106 1.042.318.289.212.432.5.432.863 0 .403-.143.714-.432.933-.287.218-.743.422-1.367.61-.644.202-1.131.463-1.464.782-.33.32-.498.728-.498 1.227 0 .517.207.968.62 1.35.414.383.953.576 1.616.576.618 0 1.119-.153 1.504-.459.387-.307.638-.64.752-1.004l-.852-.353c-.062.228-.212.441-.453.636-.24.194-.55.291-.93.291-.359 0-.666-.098-.92-.297-.254-.199-.381-.445-.381-.74 0-.27.117-.498.35-.682.235-.185.579-.351 1.032-.5.36-.114.659-.225.9-.333.24-.107.485-.25.732-.428.247-.179.433-.4.559-.666.125-.266.188-.573.188-.924 0-.349-.073-.662-.218-.937a1.77 1.77 0 0 0-.58-.657 2.927 2.927 0 0 0-1.631-.494z"/>
                <path fill="#FFF" fill-rule="nonzero" d="M78.855 48.359h1.566c.393 0 .709.13.945.392.238.263.355.552.355.868 0 .317-.117.606-.355.868-.236.263-.552.394-.945.394h-1.566V48.36zm0-3.814h-.934v7.223h2.48a2.31 2.31 0 0 0 1.6-.61c.452-.407.676-.92.676-1.539 0-.618-.224-1.131-.675-1.537a2.305 2.305 0 0 0-1.601-.612h-1.546v-2.925z"/>
                <path stroke="#FFF" stroke-width=".5" d="M78.855 48.359h1.566c.393 0 .709.13.945.392.238.263.355.552.355.868 0 .317-.117.606-.355.868-.236.263-.552.394-.945.394h-1.566V48.36zm0-3.814h-.934v7.223h2.48a2.31 2.31 0 0 0 1.6-.61c.452-.407.676-.92.676-1.539 0-.618-.224-1.131-.675-1.537a2.305 2.305 0 0 0-1.601-.612h-1.546v-2.925z"/>
                <path fill="#FFF" fill-rule="nonzero" d="M85.161 46.083c.539-.542 1.198-.811 1.977-.811.78 0 1.439.27 1.978.811.538.542.809 1.233.809 2.073 0 .84-.271 1.533-.81 2.074-.538.541-1.198.812-1.977.812-.78 0-1.438-.27-1.977-.812-.537-.541-.807-1.233-.807-2.074 0-.84.27-1.531.807-2.073m4.646-.604c-.716-.73-1.605-1.096-2.669-1.096-1.063 0-1.952.365-2.667 1.096-.715.73-1.072 1.622-1.072 2.677 0 1.056.357 1.95 1.072 2.68.715.729 1.604 1.095 2.667 1.095 1.058 0 1.945-.368 2.664-1.1.718-.734 1.077-1.625 1.077-2.675 0-1.055-.358-1.948-1.072-2.677"/>
                <path stroke="#FFF" stroke-width=".5" d="M85.161 46.083c.539-.542 1.198-.811 1.977-.811.78 0 1.439.27 1.978.811.538.542.809 1.233.809 2.073 0 .84-.271 1.533-.81 2.074-.538.541-1.198.812-1.977.812-.78 0-1.438-.27-1.977-.812-.537-.541-.807-1.233-.807-2.074 0-.84.27-1.531.807-2.073zm4.646-.604c-.716-.73-1.605-1.096-2.669-1.096-1.063 0-1.952.365-2.667 1.096-.715.73-1.072 1.622-1.072 2.677 0 1.056.357 1.95 1.072 2.68.715.729 1.604 1.095 2.667 1.095 1.058 0 1.945-.368 2.664-1.1.718-.734 1.077-1.625 1.077-2.675 0-1.055-.358-1.948-1.072-2.677z"/>
                <path fill="#FFF" fill-rule="nonzero" d="M92.191 44.545v7.223h1.14l3.535-5.618h.041l-.041 1.391v4.227h.936v-7.223h-.976l-3.7 5.892h-.04l.04-1.393v-4.5z"/>
                <path stroke="#FFF" stroke-width=".5" d="M92.191 44.545v7.223h1.14l3.535-5.618h.041l-.041 1.391v4.227h.936v-7.223h-.976l-3.7 5.892h-.04l.04-1.393v-4.5z"/>
                <path fill="#FFF" fill-rule="nonzero" d="M100.343 52.333h-.814l.53 1.292h1.016l-.732-1.292zm-.875-.564h.936v-7.224h-.936v7.224z"/>
                <path stroke="#FFF" stroke-width=".5" d="M100.343 52.333h-.814l.53 1.292h1.016l-.732-1.292zm-.875-.564h.936v-7.224h-.936v7.224z"/>
                <path fill="#FFF" fill-rule="nonzero" d="M103.869 44.545l-2.56 7.223h1.035l1.993-5.862h.04l2.074 5.862h1.036l-2.642-7.223z"/>
                <path stroke="#FFF" stroke-width=".5" d="M103.869 44.545l-2.56 7.223h1.035l1.993-5.862h.04l2.074 5.862h1.036l-2.642-7.223z"/>
                <path fill="#FFF" fill-rule="nonzero" d="M112.794 50.88h-3.314v-2.29h2.989v-.867h-2.989v-2.29h3.314v-.889h-4.249v7.224h4.25z"/>
                <path stroke="#FFF" stroke-width=".5" d="M112.794 50.88h-3.314v-2.29h2.989v-.867h-2.989v-2.29h3.314v-.889h-4.249v7.224h4.25z"/>
                <path fill="#FFF" fill-rule="nonzero" d="M114.258 44.545v7.223h.935v-6.336h3.15v-.887z"/>
                <path stroke="#FFF" stroke-width=".5" d="M114.258 44.545v7.223h.935v-6.336h3.15v-.887z"/>
                <path fill="#FFF" fill-rule="nonzero" d="M121.962 44.545v7.223h1.139l3.537-5.618h.04l-.04 1.391v4.227h.935v-7.223h-.977l-3.699 5.892h-.041l.041-1.393v-4.5z"/>
                <path stroke="#FFF" stroke-width=".5" d="M121.962 44.545v7.223h1.139l3.537-5.618h.04l-.04 1.391v4.227h.935v-7.223h-.977l-3.699 5.892h-.041l.041-1.393v-4.5z"/>
                <path fill="#FFF" fill-rule="nonzero" d="M130.543 46.083c.539-.542 1.198-.811 1.977-.811.78 0 1.439.27 1.978.811.538.542.809 1.233.809 2.073 0 .84-.271 1.533-.81 2.074-.538.541-1.198.812-1.977.812-.78 0-1.438-.27-1.977-.812-.537-.541-.807-1.233-.807-2.074 0-.84.27-1.531.807-2.073m4.646-.604c-.716-.73-1.605-1.096-2.669-1.096-1.063 0-1.952.365-2.667 1.096-.715.73-1.072 1.622-1.072 2.677 0 1.056.357 1.95 1.072 2.68.715.729 1.604 1.095 2.667 1.095 1.058 0 1.945-.368 2.664-1.1.718-.734 1.077-1.625 1.077-2.675 0-1.055-.358-1.948-1.072-2.677"/>
                <path stroke="#FFF" stroke-width=".5" d="M130.543 46.083c.539-.542 1.198-.811 1.977-.811.78 0 1.439.27 1.978.811.538.542.809 1.233.809 2.073 0 .84-.271 1.533-.81 2.074-.538.541-1.198.812-1.977.812-.78 0-1.438-.27-1.977-.812-.537-.541-.807-1.233-.807-2.074 0-.84.27-1.531.807-2.073zm4.646-.604c-.716-.73-1.605-1.096-2.669-1.096-1.063 0-1.952.365-2.667 1.096-.715.73-1.072 1.622-1.072 2.677 0 1.056.357 1.95 1.072 2.68.715.729 1.604 1.095 2.667 1.095 1.058 0 1.945-.368 2.664-1.1.718-.734 1.077-1.625 1.077-2.675 0-1.055-.358-1.948-1.072-2.677z"/>
            </g>
        </g>
    </g>
</svg>
