<svg height="512" viewBox="0 0 512 512" width="512" xmlns="http://www.w3.org/2000/svg"><g><g><g><g><g><path d="m368 352h-96v-56a8 8 0 0 1 8-8v-16h80v16a8 8 0 0 1 8 8z" fill="#f98800"/><path d="m272 304h96v32h-96z" fill="#ffec00"/><path d="m272 312h96v16h-96z" fill="#dff1fc"/></g><path d="m335.779 352v-48a16 16 0 0 0 -16-16 16 16 0 0 0 -16 16v48z" fill="#e22526"/><path d="m320 288a0 0 0 0 1 0 0v64a0 0 0 0 1 0 0h-16a0 0 0 0 1 0 0v-48a16 16 0 0 1 16-16z" fill="#d20e0f"/></g><g><ellipse cx="327.779" cy="213.714" fill="#fac8b2" rx="75.111" ry="74.286"/><circle cx="344" cy="256" fill="#f05a29" r="16"/><path d="m397.134 185.143h-23.134l-34.667 34.286-11.554-11.429a16.465 16.465 0 0 0 -23.111 0 16.032 16.032 0 0 0 0 22.857l11.555 11.429-32.182 31.828a73.946 73.946 0 0 1 -31.373-60.4c0-41.028 33.626-74.285 75.111-74.285a75.138 75.138 0 0 1 69.355 45.714z" fill="#683b11"/><path d="m360 282.462a89.309 89.309 0 0 1 -31.15 5.538c-44.65 0-80.85-32.234-80.85-72s36.165-71.972 80.8-72c-29.191 10.862-49.7 36.526-49.7 66.462 0 39.766 36.2 72 80.85 72z" fill="#f4b7a2"/><path d="m279.1 210.462c0 18.477 7.813 35.321 20.656 48.066l-17.986 16.014c-20.445-13.064-33.77-34.415-33.77-58.542 0-39.752 36.165-71.972 80.8-72-29.2 10.862-49.7 36.526-49.7 66.462z" fill="#381b05"/><path d="m357.436 274.343-13.658-13.657v-52.686a8 8 0 0 0 -16 0v36.686l-42.342-42.343a8 8 0 0 0 -11.315 11.314l72 72a8 8 0 1 0 11.315-11.314z" fill="#c1641f"/><path d="m383.778 264a7.974 7.974 0 0 1 -5.626-2.313.238.238 0 0 0 -.3 0 8 8 0 0 1 -11.251 0 .24.24 0 0 0 -.3 0 8 8 0 1 1 -11.252-11.375 16.282 16.282 0 0 1 17.182-3.613 16.278 16.278 0 0 1 17.18 3.613 8 8 0 0 1 -5.633 13.688z" fill="#683b11"/><circle cx="375.779" cy="232" fill="#2c3f51" r="8"/><path d="m240 184h-4a12 12 0 0 0 -12 12 12 12 0 0 0 12 12h183.779a12 12 0 0 0 12-12 12 12 0 0 0 -12-12h-4c0-19.293-4.888-33.671-15.779-48v-32s-24-16-72.221-16c-47.779 0-87.779 38.857-87.779 96z" fill="#ff0"/><g><path d="m300.4 175.567c22.176-.467 44.6-4.367 64.4-14.367a96.488 96.488 0 0 0 35.2-29.751v-27.449s-22.558-15.037-67.872-15.955c.87 21.251-8.486 42.862-24.962 56.4-17.489 14.366-42.344 19.1-63.951 12.506a108.464 108.464 0 0 0 -2.524 14.264c19.831 2.516 39.74 4.773 59.709 4.352z" fill="#ffec00"/><path d="m431.08 192h-206.38a11.991 11.991 0 0 1 11.3-8h4a118.646 118.646 0 0 1 .69-12.79c19.83 2.52 39.74 4.78 59.71 4.36 22.18-.47 44.6-4.37 64.4-14.37a96.4 96.4 0 0 0 35.2-29.75v4.55a73.61 73.61 0 0 1 13.17 26.19 84.148 84.148 0 0 1 2.61 21.81h4a11.991 11.991 0 0 1 11.3 8z" fill="#ff0"/><g fill="#fcc200"><path d="m224.7 192a11.972 11.972 0 0 0 11.3 16h183.779a11.972 11.972 0 0 0 11.3-16z"/><path d="m415.78 184h-55.78s34.45-9.84 53.17-21.81a84.148 84.148 0 0 1 2.61 21.81z"/></g></g><path d="m400.006 144a7.988 7.988 0 0 1 -6.376-3.16c-7.13-9.381-27.736-20.84-41.63-20.84a8 8 0 0 1 0-16c17.656 0 43.571 12.945 54.37 27.16a8 8 0 0 1 -6.364 12.84z" fill="#fcc200"/><path d="m272 184h-24a8 8 0 0 1 0-16h24a8 8 0 0 1 0 16z" fill="#fcc200"/><g fill="#fff"><path d="m408 184h-24a8 8 0 0 1 0-16h24a8 8 0 0 1 0 16z"/><path d="m303.993 123.128a8 8 0 0 1 -1.8-15.8c1.393-.322 2.81-.589 4.211-.792a8 8 0 1 1 2.291 15.836c-.961.139-1.934.321-2.894.544a8 8 0 0 1 -1.808.212z"/><path d="m271.691 150.544a8 8 0 0 1 -7.41-11.011 52.792 52.792 0 0 1 11.31-17.132 8 8 0 0 1 11.43 11.2 36.854 36.854 0 0 0 -7.914 11.952 8 8 0 0 1 -7.416 4.991z"/></g></g></g><path d="m32 376h184v32h-184z" fill="#00587e"/><circle cx="112" cy="448" fill="#dff1fc" r="40"/><path d="m112 496a48 48 0 1 1 48-48 48.053 48.053 0 0 1 -48 48zm0-80a32 32 0 1 0 32 32 32.036 32.036 0 0 0 -32-32z" fill="#2c3f51"/><path d="m24 328h192v48h-192z" fill="#007bb1"/><path d="m216 56h224a32 32 0 0 0 -32-32h-160a32 32 0 0 0 -32 32z" fill="#00587e"/><path d="m408 56 48 192h32l-48-192z" fill="#00a8e7"/><path d="m456 248h32v88h-32z" fill="#aedef8"/><path d="m488 336h-64l-16-16h-160v-264h-32v400h48v-8a64 64 0 0 1 64-64 64 64 0 0 1 64 64v8h96l-8-8v-24l8-8z" fill="#aedef8"/><circle cx="328" cy="448" fill="#dff1fc" r="40"/><path d="m328 496a48 48 0 1 1 48-48 48.053 48.053 0 0 1 -48 48zm0-80a32 32 0 1 0 32 32 32.036 32.036 0 0 0 -32-32z" fill="#2c3f51"/><path d="m184 376h32v48h-32z" fill="#00a8e7"/><path d="m24 192h192v136h-192z" fill="#00587e"/><path d="m24 192h192v32h-192z" fill="#007bb1"/><path d="m136 264h-32a8 8 0 0 1 -8-8v-32a8 8 0 0 1 16 0v24h16v-24a8 8 0 0 1 16 0v32a8 8 0 0 1 -8 8z" fill="#fff"/><path d="m24 56h192v136h-192z" fill="#00587e"/><path d="m24 56h192v32h-192z" fill="#007bb1"/><path d="m136 128h-32a8 8 0 0 1 -8-8v-32a8 8 0 0 1 16 0v24h16v-24a8 8 0 0 1 16 0v32a8 8 0 0 1 -8 8z" fill="#fff"/><circle cx="112.042" cy="448" fill="#2c3f51" r="16.202"/><circle cx="328" cy="448" fill="#2c3f51" r="16.1"/><path d="m456 336h32v56h-32z" fill="#00a8e7"/><path d="m480 424h-56v32h64l-8-8z" fill="#00a8e7"/><g fill="#aedef8"><path d="m48 480a8 8 0 0 1 -8-8v-56a8 8 0 0 1 2.343-5.657l40-40a8 8 0 0 1 5.657-2.343h48a8 8 0 0 1 5.657 2.343l40 40a8 8 0 0 1 2.343 5.657v8a8 8 0 0 1 -16 0v-4.687l-35.313-35.313h-41.374l-35.313 35.313v52.687a8 8 0 0 1 -8 8z"/><path d="m56 344a8 8 0 0 1 -8-8v-8a8 8 0 0 1 16 0v8a8 8 0 0 1 -8 8z"/><path d="m112 344a8 8 0 0 1 -8-8v-8a8 8 0 0 1 16 0v8a8 8 0 0 1 -8 8z"/><path d="m168 344a8 8 0 0 1 -8-8v-8a8 8 0 0 1 16 0v8a8 8 0 0 1 -8 8z"/></g></g><path d="m383.779 232a8 8 0 0 1 -8 8c-10.6-.392-10.6-15.61 0-16a8 8 0 0 1 8 8zm112.221 16v168a8 8 0 0 1 -2.343 5.657l-5.657 5.656v17.374l5.657 5.656c4.994 4.88 1.391 13.755-5.657 13.657h-96a8 8 0 0 1 -8-8v-8a56 56 0 0 0 -112 0v8a8 8 0 0 1 -8 8h-48a8 8 0 0 1 -8-8v-24h-24a7.955 7.955 0 0 1 -4-1.079 8.032 8.032 0 0 1 -12-6.921v-4.687l-3.313-3.313h-16.948c27.538 30.271 5.591 80.147-35.74 80-41.328.148-63.278-49.737-35.738-80h-16.948l-3.313 3.313v52.687a8 8 0 0 1 -16 0v-56h-8a8 8 0 0 1 -8-8v-24a8 8 0 0 1 -8-8v-48c0-23.728 0-114.146 0-136 0-23.137 0-114.57 0-136a8 8 0 0 1 8-8h184.805a40.068 40.068 0 0 1 39.195-32h160a40.039 40.039 0 0 1 39.972 38.906l47.789 191.154a9.577 9.577 0 0 1 .239 1.94zm-16 96h-16v40h16zm-224-280v49.724a92.272 92.272 0 0 1 71.78-33.724c50.067 0 75.6 16.636 76.658 17.344a8 8 0 0 1 3.562 6.656v29.365a80.136 80.136 0 0 1 15.52 42.981 19.787 19.787 0 0 1 7.017 2.784l-28.783-115.13zm138.831 152h-51.053v44.686l12.862 12.861a67.366 67.366 0 0 0 14.831-9.583 7.968 7.968 0 0 1 -4.874-2.276.237.237 0 0 0 -.3 0c-7.784 7.186-18.524-3.669-11.252-11.376a16.281 16.281 0 0 1 17.182-3.613 16.364 16.364 0 0 1 13.278.773 65.263 65.263 0 0 0 9.326-31.472zm-111.4 47.457 20.357-20.128-27.324-27.329h-15.75a66.2 66.2 0 0 0 22.722 47.457zm56.005 15.521-24.335-24.336-18.154 17.958a67.788 67.788 0 0 0 42.494 6.378zm-11.663-34.292v-28.686h-19.116a8.036 8.036 0 0 0 1.639 9.173l11.551 11.427a7.994 7.994 0 0 1 2.261 4.411zm92-44.686c5.271-.135 5.283-7.882 0-8-1.927 0-25.371 0-28 0a8 8 0 0 1 0-16h15.653c-1.177-13.359-5.483-24.214-13.8-35.158-7.126-9.383-27.732-20.842-41.626-20.842a8 8 0 0 1 0-16c11.967 0 27.723 5.95 40 14.208v-9.508c-18.145-8.216-33.755-12.1-64.22-12.7-31.433 0-58.795 18.379-71.78 48.061v55.939zm-163.773 112h7.778a32.038 32.038 0 0 1 18.889-29.179q-1.531-.981-3.027-2.029a82.484 82.484 0 0 1 -23.64-25.665zm23.778 0h16v-16a16.019 16.019 0 0 0 -16 16zm32 0h16v-16h-16zm32 0h16a16.018 16.018 0 0 0 -16-16zm32 0h32.222a8 8 0 0 1 5.657 2.343l13.656 13.657h20.687v-79.017l-10.8-43.192a20.007 20.007 0 0 1 -17.42 10.209h-8.949a82.335 82.335 0 0 1 -46.431 71.558 31.937 31.937 0 0 1 11.378 24.442zm104.222-56h-16v72h16zm-2.246-16-44-176h-15.508l44 176zm-252.383-192h205.258a24.042 24.042 0 0 0 -22.629-16h-160a24.042 24.042 0 0 0 -22.629 16zm-49.371 336h-20.686l16 16h4.686zm32-16v-32h-32c-.394 10.6-15.61 10.6-16 0h-40c-.394 10.6-15.61 10.6-16 0h-40c-.394 10.6-15.61 10.6-16 0h-16v32zm-176-184h176v-88h-64v24a8 8 0 0 1 -8 8h-32a8 8 0 0 1 -8-8v-24h-64zm80-88v16h16v-16zm96 224v-88h-64v24a8 8 0 0 1 -8 8h-32a8 8 0 0 1 -8-8v-24h-64v88zm-176-104h176v-16h-176zm80 32h16v-16h-16zm-80-168h176v-16h-176zm8 304v16h12.686l16-16zm72 32a32.036 32.036 0 0 0 -32 32c1.758 42.452 62.248 42.44 64 0a32.036 32.036 0 0 0 -32-32zm36.687-16-16-16h-41.374l-16 16zm59.313 16v-32h-16v32zm192 32h16v-24a8 8 0 0 1 8-8h52.686l3.314-3.313v-12.687h-24a8 8 0 0 1 -8-8v-48h-24a8 8 0 0 1 -5.657-2.343l-13.656-13.657h-156.687a8 8 0 0 1 -8-8c0-53.708 0-204.5 0-256h-16v384h32c3.966-95.541 140.07-95.468 144 0zm72-16h-40v16h40zm-96 16a48.053 48.053 0 0 1 -48 48c-63.679-2.636-63.66-93.374 0-96a48.053 48.053 0 0 1 48 48zm-16 0a32.036 32.036 0 0 0 -32-32c-42.452 1.758-42.44 62.248 0 64a32.036 32.036 0 0 0 32-32zm-247.958 16a16.019 16.019 0 0 0 16-16c-.879-21.226-31.124-21.22-32 0a16.019 16.019 0 0 0 16 16zm215.958-32a16.019 16.019 0 0 0 -16 16c.879 21.226 31.124 21.22 32 0a16.019 16.019 0 0 0 -16-16z"/></g></svg>